<mxfile host="app.diagrams.net" modified="2020-11-30T23:42:31.233Z" agent="5.0 (Windows NT 10.0; Win64; x64) AppleWebKit/537.36 (KHTML, like Gecko) Chrome/87.0.4280.66 Safari/537.36" etag="YfeoYZOhFSj6kZe7M8gt" version="13.10.4" type="github">
  <diagram id="tEDU350-TgOm2chege9t" name="Page-1">
    <mxGraphModel dx="1185" dy="635" grid="1" gridSize="10" guides="1" tooltips="1" connect="1" arrows="1" fold="1" page="1" pageScale="1" pageWidth="827" pageHeight="1169" math="0" shadow="0">
      <root>
        <mxCell id="0" />
        <mxCell id="1" parent="0" />
        <mxCell id="PXJLfqva-nX_iTWnDKEe-1" value="&lt;font style=&quot;font-size: 16px&quot;&gt;Production&lt;/font&gt;" style="rounded=0;whiteSpace=wrap;html=1;fillColor=#dae8fc;strokeColor=#6c8ebf;" vertex="1" parent="1">
          <mxGeometry x="60" y="100" width="180" height="70" as="geometry" />
        </mxCell>
        <mxCell id="PXJLfqva-nX_iTWnDKEe-2" value="" style="strokeWidth=1;shadow=0;dashed=0;align=center;html=1;shape=mxgraph.mockup.containers.browserWindow;rSize=0;strokeColor=#666666;strokeColor2=#008cff;strokeColor3=#c4c4c4;mainText=,;recursiveResize=0;" vertex="1" parent="1">
          <mxGeometry x="10" y="200" width="318.42" height="220" as="geometry" />
        </mxCell>
        <mxCell id="PXJLfqva-nX_iTWnDKEe-3" value="Page 1" style="strokeWidth=1;shadow=0;dashed=0;align=center;html=1;shape=mxgraph.mockup.containers.anchor;fontSize=17;fontColor=#666666;align=left;" vertex="1" parent="PXJLfqva-nX_iTWnDKEe-2">
          <mxGeometry x="60" y="12" width="110" height="26" as="geometry" />
        </mxCell>
        <mxCell id="PXJLfqva-nX_iTWnDKEe-4" value="https://www.draw.io" style="strokeWidth=1;shadow=0;dashed=0;align=center;html=1;shape=mxgraph.mockup.containers.anchor;rSize=0;fontSize=17;fontColor=#666666;align=left;" vertex="1" parent="PXJLfqva-nX_iTWnDKEe-2">
          <mxGeometry x="130" y="60" width="250" height="26" as="geometry" />
        </mxCell>
        <mxCell id="PXJLfqva-nX_iTWnDKEe-33" style="edgeStyle=orthogonalEdgeStyle;rounded=0;orthogonalLoop=1;jettySize=auto;html=1;endSize=6;strokeColor=#000000;" edge="1" parent="1" source="PXJLfqva-nX_iTWnDKEe-5">
          <mxGeometry relative="1" as="geometry">
            <mxPoint x="330" y="310" as="targetPoint" />
          </mxGeometry>
        </mxCell>
        <mxCell id="PXJLfqva-nX_iTWnDKEe-5" value="" style="rounded=0;whiteSpace=wrap;html=1;fillColor=#d5e8d4;strokeColor=#82b366;" vertex="1" parent="1">
          <mxGeometry x="430" y="170" width="380" height="230" as="geometry" />
        </mxCell>
        <mxCell id="PXJLfqva-nX_iTWnDKEe-11" value="Nginx w/ React" style="rounded=0;whiteSpace=wrap;html=1;" vertex="1" parent="1">
          <mxGeometry x="680" y="190" width="120" height="60" as="geometry" />
        </mxCell>
        <mxCell id="PXJLfqva-nX_iTWnDKEe-12" value="Express Server" style="rounded=0;whiteSpace=wrap;html=1;" vertex="1" parent="1">
          <mxGeometry x="680" y="280" width="120" height="60" as="geometry" />
        </mxCell>
        <mxCell id="PXJLfqva-nX_iTWnDKEe-13" value="port 6001" style="rounded=0;whiteSpace=wrap;html=1;" vertex="1" parent="1">
          <mxGeometry x="620" y="300" width="60" height="20" as="geometry" />
        </mxCell>
        <mxCell id="PXJLfqva-nX_iTWnDKEe-14" value="port 3000" style="rounded=0;whiteSpace=wrap;html=1;" vertex="1" parent="1">
          <mxGeometry x="620" y="210" width="60" height="20" as="geometry" />
        </mxCell>
        <mxCell id="PXJLfqva-nX_iTWnDKEe-29" style="edgeStyle=orthogonalEdgeStyle;rounded=0;orthogonalLoop=1;jettySize=auto;html=1;entryX=0;entryY=0.5;entryDx=0;entryDy=0;endSize=6;strokeColor=#000000;" edge="1" parent="1" source="PXJLfqva-nX_iTWnDKEe-16" target="PXJLfqva-nX_iTWnDKEe-13">
          <mxGeometry relative="1" as="geometry" />
        </mxCell>
        <mxCell id="PXJLfqva-nX_iTWnDKEe-30" style="edgeStyle=orthogonalEdgeStyle;rounded=0;orthogonalLoop=1;jettySize=auto;html=1;entryX=0;entryY=0.5;entryDx=0;entryDy=0;endSize=6;strokeColor=#000000;" edge="1" parent="1" source="PXJLfqva-nX_iTWnDKEe-16" target="PXJLfqva-nX_iTWnDKEe-14">
          <mxGeometry relative="1" as="geometry" />
        </mxCell>
        <mxCell id="PXJLfqva-nX_iTWnDKEe-16" value="Nginx Routing" style="whiteSpace=wrap;html=1;aspect=fixed;" vertex="1" parent="1">
          <mxGeometry x="480" y="233" width="80" height="80" as="geometry" />
        </mxCell>
        <mxCell id="PXJLfqva-nX_iTWnDKEe-15" value="port 80" style="rounded=0;whiteSpace=wrap;html=1;" vertex="1" parent="1">
          <mxGeometry x="430" y="263" width="50" height="20" as="geometry" />
        </mxCell>
      </root>
    </mxGraphModel>
  </diagram>
</mxfile>
